<svg id="visual" viewBox="0 0 900 300" width="900" height="300" xmlns="http://www.w3.org/2000/svg" xmlns:xlink="http://www.w3.org/1999/xlink" version="1.1"><rect x="0" y="0" width="900" height="300" fill="#365943"></rect><path d="M0 116L150 131L300 89L450 90L600 92L750 95L900 74L900 301L750 301L600 301L450 301L300 301L150 301L0 301Z" fill="#5c866b"></path><path d="M0 166L150 135L300 104L450 149L600 135L750 155L900 159L900 301L750 301L600 301L450 301L300 301L150 301L0 301Z" fill="#749b82"></path><path d="M0 176L150 150L300 176L450 187L600 203L750 193L900 178L900 301L750 301L600 301L450 301L300 301L150 301L0 301Z" fill="#8db19a"></path><path d="M0 219L150 202L300 224L450 233L600 187L750 225L900 190L900 301L750 301L600 301L450 301L300 301L150 301L0 301Z" fill="#a6c7b2"></path><path d="M0 232L150 262L300 248L450 232L600 265L750 237L900 238L900 301L750 301L600 301L450 301L300 301L150 301L0 301Z" fill="#c0decb"></path></svg>