<svg id="visual" viewBox="0 0 900 300" width="900" height="300" xmlns="http://www.w3.org/2000/svg" xmlns:xlink="http://www.w3.org/1999/xlink" version="1.1"><rect x="0" y="0" width="900" height="300" fill="#f5f5f5"></rect><path d="M0 219L150 196L300 169L450 208L600 181L750 138L900 153L900 0L750 0L600 0L450 0L300 0L150 0L0 0Z" fill="#c0decb"></path><path d="M0 182L150 173L300 164L450 115L600 142L750 161L900 187L900 0L750 0L600 0L450 0L300 0L150 0L0 0Z" fill="#9bbba7"></path><path d="M0 148L150 135L300 117L450 140L600 146L750 112L900 110L900 0L750 0L600 0L450 0L300 0L150 0L0 0Z" fill="#789984"></path><path d="M0 68L150 92L300 92L450 97L600 100L750 80L900 77L900 0L750 0L600 0L450 0L300 0L150 0L0 0Z" fill="#567863"></path><path d="M0 39L150 47L300 58L450 63L600 68L750 62L900 38L900 0L750 0L600 0L450 0L300 0L150 0L0 0Z" fill="#365943"></path></svg>