<svg id="visual" viewBox="0 0 900 300" width="900" height="300" xmlns="http://www.w3.org/2000/svg" xmlns:xlink="http://www.w3.org/1999/xlink" version="1.1"><rect x="0" y="0" width="900" height="300" fill="#f5f5f5"></rect><path d="M0 126L150 99L300 142L450 108L600 97L750 145L900 121L900 301L750 301L600 301L450 301L300 301L150 301L0 301Z" fill="#c0decb"></path><path d="M0 164L150 183L300 113L450 123L600 159L750 189L900 182L900 301L750 301L600 301L450 301L300 301L150 301L0 301Z" fill="#9bbba7"></path><path d="M0 201L150 198L300 177L450 182L600 214L750 177L900 216L900 301L750 301L600 301L450 301L300 301L150 301L0 301Z" fill="#789984"></path><path d="M0 218L150 194L300 217L450 221L600 191L750 234L900 204L900 301L750 301L600 301L450 301L300 301L150 301L0 301Z" fill="#567863"></path><path d="M0 237L150 231L300 267L450 256L600 247L750 236L900 263L900 301L750 301L600 301L450 301L300 301L150 301L0 301Z" fill="#365943"></path></svg>